<svg width="18" height="18" viewBox="0 0 18 18" fill="none" xmlns="http://www.w3.org/2000/svg">
    <path d="M1.8027 5.29558L9 8.89377L16.1973 5.29558C16.1707 4.83697 15.9697 4.40591 15.6355 4.09068C15.3014 3.77544 14.8594 3.59989 14.4 3.59998H3.6C3.14063 3.59989 2.69861 3.77544 2.36446 4.09068C2.03032 4.40591 1.82935 4.83697 1.8027 5.29558Z" fill="currentColor"/>
    <path d="M16.2 7.30621L8.99999 10.9062L1.79999 7.30621V12.6C1.79999 13.0774 1.98963 13.5352 2.3272 13.8728C2.66476 14.2104 3.1226 14.4 3.59999 14.4H14.4C14.8774 14.4 15.3352 14.2104 15.6728 13.8728C16.0103 13.5352 16.2 13.0774 16.2 12.6V7.30621Z" fill="currentColor"/>
</svg>
